<svg xmlns="http://www.w3.org/2000/svg" xmlns:xlink="http://www.w3.org/1999/xlink" width="500" zoomAndPan="magnify" viewBox="0 0 375 374.999991" height="500" preserveAspectRatio="xMidYMid meet" version="1.2"><defs><clipPath id="a34c63ebd2"><path d="M 0 0 L 199.679688 0 L 199.679688 375 L 0 375 Z M 0 0 "/></clipPath><clipPath id="36f53e0476"><path d="M 144.371094 0 L 375 0 L 375 375 L 144.371094 375 Z M 144.371094 0 "/></clipPath></defs><g id="87fba354dc"><g clip-rule="nonzero" clip-path="url(#a34c63ebd2)"><path style=" stroke:none;fill-rule:nonzero;fill:#bf0b20;fill-opacity:1;" d="M -50.6875 0 L 199.679688 0 L 199.679688 374.570312 L -50.6875 374.570312 Z M -50.6875 0 "/></g><g clip-rule="nonzero" clip-path="url(#36f53e0476)"><path style=" stroke:none;fill-rule:nonzero;fill:#296b45;fill-opacity:1;" d="M 144.371094 0 L 375 0 L 375 374.773438 L 144.371094 374.773438 Z M 144.371094 0 "/></g><g style="fill:#ffffff;fill-opacity:1;"><g transform="translate(189.872261, 257.899085)"><path style="stroke:none" d="M 74.203125 -36.703125 L 82.078125 -36.34375 C 93.515625 -36.34375 102.945312 -40.117188 110.375 -47.671875 C 117.914062 -55.273438 121.863281 -65.117188 122.21875 -77.203125 C 122.875 -95.835938 113.914062 -108.425781 95.34375 -114.96875 C 88.382812 -117.445312 79.332031 -118.6875 68.1875 -118.6875 L 60.765625 -118.6875 L 60.765625 0 L 15.65625 0 L 15.65625 -125.140625 L 49.53125 -125.140625 C 67.800781 -125.140625 78.820312 -124.875 82.59375 -124.34375 C 86.375 -123.8125 90.3125 -123.132812 94.40625 -122.3125 C 98.507812 -121.488281 102.929688 -119.691406 107.671875 -116.921875 C 112.421875 -114.148438 116.445312 -110.847656 119.75 -107.015625 C 126.40625 -99.234375 129.617188 -90.09375 129.390625 -79.59375 C 129.035156 -66.207031 125.113281 -55.066406 117.625 -46.171875 C 110.019531 -37.203125 99.523438 -31.65625 86.140625 -29.53125 C 82.242188 -29.007812 79.175781 -28.75 76.9375 -28.75 C 71.632812 -28.75 68.984375 -30.191406 68.984375 -33.078125 C 68.984375 -34.140625 69.453125 -35.007812 70.390625 -35.6875 C 71.335938 -36.363281 72.609375 -36.703125 74.203125 -36.703125 Z M 74.203125 -36.703125 "/></g></g><path style="fill:none;stroke-width:23;stroke-linecap:butt;stroke-linejoin:miter;stroke:#ffffff;stroke-opacity:1;stroke-miterlimit:4;" d="M 0.00152679 11.497854 L 216.668973 11.501851 " transform="matrix(0.248297,-0.707706,0.707706,0.248297,49.042204,277.415725)"/><path style="fill:none;stroke-width:23;stroke-linecap:butt;stroke-linejoin:miter;stroke:#ffffff;stroke-opacity:1;stroke-miterlimit:4;" d="M -0.000104252 11.499799 L 130.657326 11.501001 " transform="matrix(0.68933,-0.295507,0.295507,0.68933,53.785393,226.525941)"/><path style="fill:none;stroke-width:23;stroke-linecap:butt;stroke-linejoin:miter;stroke:#ffffff;stroke-opacity:1;stroke-miterlimit:4;" d="M 0.000296884 11.501001 L 207.643411 11.500952 " transform="matrix(-0.349326,-0.66368,0.66368,-0.349326,175.882743,268.763889)"/></g></svg>